# xmcd CD database file
#
# Track frame offsets:
#	150
#	6758
#	27741
#	46472
#	60703
#	71735
#	89134
#	116842
#	140558
#	165110
#
# Disc length: 2279 seconds
#
# Revision: 0
# Processed by: cddbd v1.5.2PL0 Copyright (c) Steve Scherf et al.
# Submitted via: CDex 1.51
#
DISCID=8f08e50a
DTITLE=Michalis Siganidis - Thodoris Rellos - To Proi Kai To Vrady
DYEAR=1990
DGENRE=Jazz
TTITLE0=Perilipsi
TTITLE1=Pseudo-echos
TTITLE2=To Proi Kai To Vrady
TTITLE3=Gramma I
TTITLE4=Kyrie
TTITLE5=O Periplanomenos (LU)
TTITLE6=To Kafeneio
TTITLE7=Gramma II
TTITLE8=O Daimonas
TTITLE9=Velouchi
EXTD=YEAR: 1990
EXTT0=
EXTT1=
EXTT2=
EXTT3=
EXTT4=
EXTT5=
EXTT6=
EXTT7=
EXTT8=
EXTT9=
PLAYORDER=
